<?xml version="1.0" encoding="UTF-8"?>
<svg xmlns="http://www.w3.org/2000/svg" id="Layer_1" data-name="Layer 1" viewBox="0 0 24 24">
  <path d="m24,19.071c0,1.174-.682,2.232-1.747,2.727-1.99.926-5.58,2.202-10.253,2.202-4.905,0-9.169-2.343-10.794-3.895C.425,19.358-.01,18.328-.009,17.246-.005,13.645.411,5.566,6.286,1.048,6.286,1.048,7.5-.024,9-.024c1.544,0,2.565.788,2.93,1.622.196.448-.038.97-.492,1.15l-1.419.516-.019.534c-.004.375-.299.682-.673.702l-2.147.649c-.551,1.557.477,6.576-.861,10.103.525-.635,2.855-3.178,6.181-3.252,2.102-.045,4.123,1.923,4.169,1.968.196.201.456.302.716.302.252,0,.503-.095.697-.283.396-.386.404-1.019.02-1.414-.047-.049-.579-.595-1.426-1.171.884-.724,2.059-1.425,3.324-1.425.446,0,.884.023,1.297.058,1.537.133,2.703,1.444,2.703,2.986v6.05Z"/>
</svg>
